<svg width="90" height="90" viewBox="0 0 90 90" fill="none" xmlns="http://www.w3.org/2000/svg">
<path d="M41.25 56.25V48.75C38.2663 48.75 35.4048 47.5647 33.295 45.4549C31.1853 43.3452 30 40.4837 30 37.5C30 34.5163 31.1853 31.6548 33.295 29.545C35.4048 27.4353 38.2663 26.25 41.25 26.25V22.5C41.25 21.5054 41.6451 20.5516 42.3483 19.8483C43.0516 19.1451 44.0054 18.75 45 18.75C45.9946 18.75 46.9484 19.1451 47.6516 19.8483C48.3549 20.5516 48.75 21.5054 48.75 22.5V26.25H48.8325C51.7943 26.25 54.6348 27.4266 56.7291 29.5209C58.8234 31.6152 60 34.4557 60 37.4175C60 38.4121 59.6049 39.3659 58.9016 40.0691C58.1984 40.7724 57.2446 41.1675 56.25 41.1675C55.2554 41.1675 54.3016 40.7724 53.5983 40.0691C52.8951 39.3659 52.5 38.4121 52.5 37.4175C52.5 36.4448 52.1136 35.512 51.4258 34.8242C50.738 34.1364 49.8052 33.75 48.8325 33.75H48.75V41.25C51.7337 41.25 54.5952 42.4353 56.7049 44.545C58.8147 46.6548 60 49.5163 60 52.5C60 55.4837 58.8147 58.3452 56.7049 60.4549C54.5952 62.5647 51.7337 63.75 48.75 63.75V67.5C48.75 68.4946 48.3549 69.4484 47.6516 70.1516C46.9484 70.8549 45.9946 71.25 45 71.25C44.0054 71.25 43.0516 70.8549 42.3483 70.1516C41.6451 69.4484 41.25 68.4946 41.25 67.5V63.75H41.0587C38.1258 63.75 35.3129 62.5849 33.239 60.511C31.1651 58.437 30 55.6242 30 52.6912C30 51.6967 30.3951 50.7429 31.0983 50.0396C31.8016 49.3363 32.7554 48.9412 33.75 48.9412C34.7446 48.9412 35.6984 49.3363 36.4016 50.0396C37.1049 50.7429 37.5 51.6967 37.5 52.6912C37.501 53.6348 37.8762 54.5394 38.5434 55.2066C39.2106 55.8737 40.1152 56.249 41.0587 56.25H41.25ZM48.75 56.25C49.7446 56.25 50.6984 55.8549 51.4016 55.1516C52.1049 54.4484 52.5 53.4946 52.5 52.5C52.5 51.5054 52.1049 50.5516 51.4016 49.8483C50.6984 49.1451 49.7446 48.75 48.75 48.75V56.25ZM41.25 33.75C40.2554 33.75 39.3016 34.1451 38.5983 34.8483C37.8951 35.5516 37.5 36.5054 37.5 37.5C37.5 38.4946 37.8951 39.4484 38.5983 40.1516C39.3016 40.8549 40.2554 41.25 41.25 41.25V33.75ZM45 82.5C24.2887 82.5 7.5 65.7112 7.5 45C7.5 24.2887 24.2887 7.5 45 7.5C65.7112 7.5 82.5 24.2887 82.5 45C82.5 65.7112 65.7112 82.5 45 82.5ZM45 75C52.9565 75 60.5871 71.8393 66.2132 66.2132C71.8393 60.5871 75 52.9565 75 45C75 37.0435 71.8393 29.4129 66.2132 23.7868C60.5871 18.1607 52.9565 15 45 15C37.0435 15 29.4129 18.1607 23.7868 23.7868C18.1607 29.4129 15 37.0435 15 45C15 52.9565 18.1607 60.5871 23.7868 66.2132C29.4129 71.8393 37.0435 75 45 75Z" fill="url(#paint0_linear_535_244)"/>
<defs>
<linearGradient id="paint0_linear_535_244" x1="7.5" y1="45" x2="82.5" y2="45" gradientUnits="userSpaceOnUse">
<stop stop-color="#27FB6B"/>
<stop stop-color="#27FB6B"/>
<stop offset="0.0001" stop-color="#27FB6B"/>
<stop offset="1" stop-color="#329F5B"/>
</linearGradient>
</defs>
</svg>
