<svg width="90" height="90" viewBox="0 0 90 90" fill="none" xmlns="http://www.w3.org/2000/svg">
<path d="M67.1484 23.9062C59.9643 23.9062 54.2355 27.515 50.6953 30.5437L50.5705 30.651L48.5543 32.843L53.0051 40.1572L56.2992 36.8543C59.7463 33.9434 63.5941 32.3438 67.1484 32.3438C74.3203 32.3438 80.1562 38.0215 80.1562 45C80.1562 51.9785 74.3203 57.6562 67.1484 57.6562C56.25 57.6562 48.8426 43.251 48.7687 43.1051C48.3398 42.2385 38.9461 23.9062 22.8516 23.9062C11.0268 23.9062 1.40625 33.3686 1.40625 45C1.40625 56.6314 11.0268 66.0938 22.8516 66.0938C28.6436 66.0938 34.3441 63.7893 39.3381 59.4281L39.4453 59.3332L41.4457 57.157L36.9932 49.8428L33.6832 53.1615C30.2344 56.1445 26.5887 57.6562 22.8516 57.6562C15.6797 57.6562 9.84375 51.9785 9.84375 45C9.84375 38.0215 15.6797 32.3438 22.8516 32.3438C33.75 32.3438 41.1574 46.749 41.2313 46.8949C41.6602 47.7615 51.0539 66.0938 67.1484 66.0938C78.9732 66.0938 88.5938 56.6314 88.5938 45C88.5938 33.3686 78.9732 23.9062 67.1484 23.9062Z" fill="url(#paint0_linear_535_241)"/>
<defs>
<linearGradient id="paint0_linear_535_241" x1="1.40625" y1="45" x2="88.5938" y2="45" gradientUnits="userSpaceOnUse">
<stop stop-color="#27FB6B"/>
<stop stop-color="#27FB6B"/>
<stop offset="0.0001" stop-color="#27FB6B"/>
<stop offset="1" stop-color="#329F5B"/>
</linearGradient>
</defs>
</svg>
