<svg width="79" height="79" viewBox="0 0 79 79" fill="none" xmlns="http://www.w3.org/2000/svg">
<path d="M26.8035 11.2858C23.4362 11.2858 20.2068 12.6234 17.8258 15.0045C15.4448 17.3855 14.1071 20.6149 14.1071 23.9822C14.1071 27.3495 15.4448 30.5789 17.8258 32.9599C20.2068 35.341 23.4362 36.6786 26.8035 36.6786C30.1708 36.6786 33.4002 35.341 35.7813 32.9599C38.1623 30.5789 39.5 27.3495 39.5 23.9822C39.5 20.6149 38.1623 17.3855 35.7813 15.0045C33.4002 12.6234 30.1708 11.2858 26.8035 11.2858ZM18.3393 23.9822C18.3393 22.8706 18.5582 21.77 18.9836 20.7431C19.4089 19.7161 20.0324 18.783 20.8184 17.997C21.6044 17.2111 22.5375 16.5876 23.5644 16.1622C24.5913 15.7368 25.692 15.5179 26.8035 15.5179C27.9151 15.5179 29.0157 15.7368 30.0427 16.1622C31.0696 16.5876 32.0027 17.2111 32.7887 17.997C33.5747 18.783 34.1981 19.7161 34.6235 20.7431C35.0489 21.77 35.2678 22.8706 35.2678 23.9822C35.2678 26.2271 34.3761 28.38 32.7887 29.9673C31.2013 31.5547 29.0484 32.4465 26.8035 32.4465C24.5587 32.4465 22.4057 31.5547 20.8184 29.9673C19.231 28.38 18.3393 26.2271 18.3393 23.9822ZM56.4285 16.9286C55.1317 16.9286 53.8476 17.184 52.6495 17.6803C51.4514 18.1766 50.3628 18.904 49.4459 19.8209C48.5289 20.7379 47.8015 21.8265 47.3052 23.0246C46.809 24.2227 46.5535 25.5068 46.5535 26.8036C46.5535 28.1004 46.809 29.3845 47.3052 30.5826C47.8015 31.7807 48.5289 32.8693 49.4459 33.7863C50.3628 34.7033 51.4514 35.4307 52.6495 35.9269C53.8476 36.4232 55.1317 36.6786 56.4285 36.6786C59.0476 36.6786 61.5593 35.6382 63.4112 33.7863C65.2631 31.9344 66.3035 29.4226 66.3035 26.8036C66.3035 24.1846 65.2631 21.6729 63.4112 19.8209C61.5593 17.969 59.0476 16.9286 56.4285 16.9286ZM50.7857 26.8036C50.7857 25.307 51.3802 23.8718 52.4384 22.8135C53.4967 21.7553 54.932 21.1608 56.4285 21.1608C57.9251 21.1608 59.3604 21.7553 60.4186 22.8135C61.4769 23.8718 62.0714 25.307 62.0714 26.8036C62.0714 28.3002 61.4769 29.7355 60.4186 30.7937C59.3604 31.852 57.9251 32.4465 56.4285 32.4465C54.932 32.4465 53.4967 31.852 52.4384 30.7937C51.3802 29.7355 50.7857 28.3002 50.7857 26.8036ZM5.64282 48.6697C5.64282 46.986 6.31165 45.3713 7.50217 44.1808C8.69269 42.9903 10.3074 42.3215 11.991 42.3215H41.616C42.1747 42.3215 42.7164 42.3948 43.2327 42.5303C41.9737 43.7314 40.8669 45.0826 39.9373 46.5536H11.991C11.4298 46.5536 10.8916 46.7766 10.4947 47.1734C10.0979 47.5702 9.87497 48.1085 9.87497 48.6697V50.1171L9.90036 50.3992C9.92857 50.6644 9.985 51.0623 10.1091 51.5504C10.4381 52.8554 11.0231 54.082 11.8302 55.159C13.7319 57.6898 17.7975 60.6608 26.8035 60.6608C31.1542 60.6608 34.3509 59.9695 36.7068 58.9679C36.7822 60.4147 37.0063 61.8499 37.3754 63.2508C34.5963 64.2665 31.1231 64.8929 26.8035 64.8929C16.7649 64.8929 11.3083 61.5157 8.44732 57.6983C7.30029 56.1709 6.46961 54.4299 6.00397 52.5774C5.81975 51.8398 5.70172 51.0872 5.65129 50.3287C5.64777 50.2751 5.64495 50.2215 5.64282 50.1679V48.6697ZM76.1785 57.8393C76.1785 62.7032 74.2464 67.3679 70.8071 70.8072C67.3678 74.2464 62.7031 76.1786 57.8392 76.1786C52.9754 76.1786 48.3107 74.2464 44.8714 70.8072C41.4321 67.3679 39.5 62.7032 39.5 57.8393C39.5 52.9755 41.4321 48.3108 44.8714 44.8715C48.3107 41.4322 52.9754 39.5 57.8392 39.5C62.7031 39.5 67.3678 41.4322 70.8071 44.8715C74.2464 48.3108 76.1785 52.9755 76.1785 57.8393ZM59.8538 46.6665C59.7297 46.2278 59.4658 45.8416 59.1022 45.5665C58.7386 45.2915 58.2952 45.1427 57.8392 45.1427C57.3833 45.1427 56.9399 45.2915 56.5763 45.5665C56.2127 45.8416 55.9488 46.2278 55.8247 46.6665L53.8046 53.1501H47.2645C45.2134 53.1501 44.3585 55.8869 46.0203 57.1453L51.3105 61.1517L49.2903 67.6353C48.6555 69.6696 50.8901 71.3596 52.5491 70.1041L57.8392 66.0977L63.1294 70.1041C64.7884 71.3624 67.023 69.6696 66.3882 67.6353L64.368 61.1517L69.6582 57.1453C71.3172 55.8897 70.4651 53.1501 68.414 53.1501H61.8739L59.8538 46.6665Z" fill="url(#paint0_linear_535_274)"/>
<defs>
<linearGradient id="paint0_linear_535_274" x1="5.64282" y1="43.7322" x2="76.1785" y2="43.7322" gradientUnits="userSpaceOnUse">
<stop stop-color="#27FB6B"/>
<stop stop-color="#27FB6B"/>
<stop offset="0.0001" stop-color="#27FB6B"/>
<stop offset="1" stop-color="#329F5B"/>
</linearGradient>
</defs>
</svg>
