<svg width="77" height="77" viewBox="0 0 77 77" fill="none" xmlns="http://www.w3.org/2000/svg">
<path d="M23.3406 11.4152C22.1327 12.113 20.8622 14.0332 20.713 18.2297C20.6706 19.1803 20.2546 20.0757 19.5555 20.7211C18.8563 21.3666 17.9306 21.7098 16.9796 21.6762C16.0287 21.6425 15.1295 21.2348 14.4777 20.5416C13.8259 19.8484 13.4742 18.9259 13.499 17.9747C13.6819 12.8349 15.3085 7.71923 19.7312 5.16379C24.1684 2.60354 29.4284 3.76817 33.981 6.19367C34.826 6.64422 35.4573 7.41197 35.7362 8.32803C36.0151 9.24409 35.9187 10.2334 35.4681 11.0784C35.0175 11.9233 34.2498 12.5547 33.3337 12.8335C32.4177 13.1124 31.4284 13.016 30.5834 12.5654C26.8634 10.5779 24.5534 10.7222 23.3406 11.4152ZM42.6917 17.6715C43.0569 17.3694 43.4781 17.1422 43.9312 17.0028C44.3843 16.8635 44.8604 16.8148 45.3323 16.8595C45.8043 16.9042 46.2627 17.0414 46.6816 17.2633C47.1005 17.4852 47.4716 17.7874 47.7737 18.1527C50.5932 21.5732 53.1206 25.2242 55.3293 29.0675C60.3343 37.7396 63.4191 46.6235 64.2517 54.0732C64.6655 57.7933 64.5404 61.3353 63.6742 64.372C62.7935 67.4279 61.0899 70.1951 58.2312 71.8458C54.771 73.843 50.7719 73.5639 47.1192 72.2308C43.452 70.8929 39.6742 68.3663 36.0745 65.0794C35.3782 64.4315 34.9657 63.5349 34.9269 62.5845C34.888 61.6341 35.2259 60.7069 35.867 60.0042C36.5081 59.3016 37.4007 58.8805 38.3506 58.8323C39.3005 58.7842 40.2311 59.113 40.9399 59.7472C44.1162 62.6443 47.0951 64.5404 49.588 65.4452C52.1001 66.3595 53.6786 66.143 54.6218 65.5944C55.4111 65.1372 56.21 64.2084 56.7297 62.3844C57.2591 60.5364 57.4275 58.005 57.0762 54.8769C56.3784 48.6255 53.7075 40.6945 49.073 32.6769C47.0676 29.1868 44.7737 25.8706 42.2152 22.7631C41.9131 22.3978 41.6859 21.9766 41.5466 21.5235C41.4073 21.0704 41.3586 20.5943 41.4032 20.1224C41.4479 19.6505 41.5851 19.192 41.807 18.7731C42.0289 18.3542 42.3312 17.9832 42.6965 17.6811L42.6917 17.6715Z" fill="url(#paint0_linear_535_250)"/>
<path d="M69.7812 39.4913C69.7812 38.0957 68.7514 36.0311 65.1949 33.8126C64.7927 33.5614 64.4438 33.2334 64.1683 32.8474C63.8928 32.4613 63.6961 32.0248 63.5893 31.5627C63.4824 31.1007 63.4677 30.6221 63.5459 30.1543C63.624 29.6865 63.7935 29.2387 64.0447 28.8365C64.5521 28.0241 65.3614 27.4465 66.2946 27.2308C66.7567 27.124 67.2353 27.1092 67.703 27.1874C68.1708 27.2655 68.6186 27.4351 69.0209 27.6863C73.381 30.415 77 34.3805 77 39.4913C77 44.6118 73.3617 48.587 68.9824 51.3156C68.1705 51.8029 67.1996 51.9515 66.2791 51.7296C65.3586 51.5076 64.5622 50.9329 64.0616 50.1292C63.5609 49.3255 63.3961 48.3572 63.6028 47.4332C63.8094 46.5091 64.3708 45.7033 65.1661 45.1893C68.7466 42.9563 69.7812 40.887 69.7812 39.4913ZM54.6844 53.1203C54.7638 53.5877 54.7503 54.0661 54.6448 54.5283C54.5392 54.9904 54.3437 55.4272 54.0693 55.8138C53.7949 56.2004 53.447 56.5291 53.0456 56.7812C52.6441 57.0333 52.1969 57.2039 51.7296 57.2831C47.3574 58.0097 42.9322 58.3703 38.5 58.3611C28.49 58.3611 19.25 56.595 12.3826 53.5871C8.95125 52.0905 5.95306 50.2088 3.75856 47.9373C1.54 45.6513 0 42.7879 0 39.4913C0 35.497 2.24262 32.1763 5.22156 29.6738C8.21494 27.1665 12.2959 25.1597 16.94 23.6871C17.8526 23.3973 18.8429 23.482 19.6931 23.9224C20.114 24.1405 20.4879 24.4394 20.7934 24.8019C21.0989 25.1645 21.3299 25.5837 21.4734 26.0356C21.6168 26.4874 21.6699 26.9632 21.6295 27.4355C21.5891 27.9079 21.4561 28.3677 21.238 28.7887C21.0199 29.2096 20.7211 29.5835 20.3585 29.889C19.9959 30.1944 19.5767 30.4255 19.1249 30.569C15.0342 31.8683 11.8965 33.4998 9.86562 35.2082C7.8155 36.9215 7.21875 38.3989 7.21875 39.4913C7.21875 40.4057 7.62781 41.5607 8.94644 42.9226C10.2843 44.3038 12.3922 45.7139 15.2749 46.9748C21.0354 49.4965 29.2407 51.1424 38.5 51.1424C42.7591 51.1424 46.8112 50.7959 50.5216 50.1655C50.989 50.0861 51.4674 50.0996 51.9296 50.2051C52.3917 50.3107 52.8285 50.5062 53.2151 50.7806C53.6017 51.055 53.9304 51.4029 54.1825 51.8043C54.4346 52.2058 54.6052 52.653 54.6844 53.1203Z" fill="url(#paint1_linear_535_250)"/>
<path d="M23.4465 65.5944C24.6497 66.2922 26.9549 66.4318 30.6605 64.4634C31.0792 64.241 31.5376 64.1032 32.0095 64.0579C32.4815 64.0126 32.9577 64.0607 33.4111 64.1994C33.8645 64.3382 34.2861 64.5649 34.6518 64.8666C35.0176 65.1683 35.3203 65.539 35.5428 65.9577C35.7652 66.3764 35.903 66.8348 35.9483 67.3068C35.9936 67.7787 35.9455 68.255 35.8068 68.7083C35.668 69.1617 35.4413 69.5833 35.1396 69.949C34.838 70.3148 34.4672 70.6175 34.0485 70.84C29.5055 73.2511 24.2599 74.4013 19.8372 71.8506C15.4 69.2856 13.7734 64.1506 13.605 58.9916C13.5875 58.0438 13.9436 57.1272 14.5963 56.4398C15.249 55.7523 16.146 55.3493 17.0934 55.3177C18.0408 55.2861 18.9627 55.6285 19.6598 56.2709C20.3568 56.9133 20.7732 57.8041 20.8189 58.751C20.9633 62.9619 22.2338 64.8966 23.4465 65.5944ZM19.1923 45.7043C18.2951 45.3711 17.567 44.6951 17.1681 43.8251C16.7692 42.9552 16.7322 41.9624 17.0652 41.0651C18.5185 37.1429 20.4195 33.0908 22.7439 29.0675C27.7489 20.3954 33.8993 13.2825 39.9342 8.83576C42.9468 6.61719 46.0749 4.95688 49.1405 4.1917C52.2253 3.4217 55.4785 3.51313 58.3324 5.16382C61.7974 7.16101 63.5491 10.7608 64.2229 14.5963C64.9014 18.4415 64.5982 22.9749 63.5491 27.7344C63.4642 28.2132 63.2835 28.6699 63.0177 29.0771C62.7519 29.4843 62.4066 29.8336 62.0025 30.104C61.5984 30.3744 61.1438 30.5604 60.666 30.6508C60.1882 30.7412 59.6971 30.7341 59.2221 30.6299C58.7472 30.5258 58.2981 30.3267 57.902 30.0447C57.5059 29.7628 57.1708 29.4036 56.9169 28.9889C56.663 28.5742 56.4955 28.1125 56.4245 27.6315C56.3535 27.1504 56.3804 26.66 56.5036 26.1896C57.4228 21.9931 57.5768 18.4608 57.1148 15.8428C56.6528 13.2151 55.671 11.9591 54.7278 11.4153C53.9385 10.9581 52.7306 10.7319 50.8922 11.1939C49.025 11.6607 46.7535 12.782 44.2173 14.6493C39.1545 18.3741 33.6202 24.6593 28.9954 32.6769C26.9715 36.1591 25.2442 39.8054 23.8315 43.5772C23.4983 44.4744 22.8224 45.2025 21.9524 45.6014C21.0824 46.0003 20.0896 46.0373 19.1923 45.7043Z" fill="url(#paint2_linear_535_250)"/>
<path d="M45.5263 38.8176C45.5263 40.5534 44.8367 42.2182 43.6093 43.4456C42.3819 44.673 40.7171 45.3626 38.9813 45.3626C37.2454 45.3626 35.5807 44.673 34.3533 43.4456C33.1258 42.2182 32.4363 40.5534 32.4363 38.8176C32.4363 37.0817 33.1258 35.417 34.3533 34.1896C35.5807 32.9621 37.2454 32.2726 38.9813 32.2726C40.7171 32.2726 42.3819 32.9621 43.6093 34.1896C44.8367 35.417 45.5263 37.0817 45.5263 38.8176Z" fill="url(#paint3_linear_535_250)"/>
<defs>
<linearGradient id="paint0_linear_535_250" x1="13.4978" y1="38.5045" x2="64.4797" y2="38.5045" gradientUnits="userSpaceOnUse">
<stop stop-color="#27FB6B"/>
<stop stop-color="#27FB6B"/>
<stop offset="0.0001" stop-color="#27FB6B"/>
<stop offset="1" stop-color="#329F5B"/>
</linearGradient>
<linearGradient id="paint1_linear_535_250" x1="0" y1="40.9396" x2="77" y2="40.9396" gradientUnits="userSpaceOnUse">
<stop stop-color="#27FB6B"/>
<stop stop-color="#27FB6B"/>
<stop offset="0.0001" stop-color="#27FB6B"/>
<stop offset="1" stop-color="#329F5B"/>
</linearGradient>
<linearGradient id="paint2_linear_535_250" x1="13.6044" y1="38.5083" x2="64.585" y2="38.5083" gradientUnits="userSpaceOnUse">
<stop stop-color="#27FB6B"/>
<stop stop-color="#27FB6B"/>
<stop offset="0.0001" stop-color="#27FB6B"/>
<stop offset="1" stop-color="#329F5B"/>
</linearGradient>
<linearGradient id="paint3_linear_535_250" x1="32.4363" y1="38.8176" x2="45.5263" y2="38.8176" gradientUnits="userSpaceOnUse">
<stop stop-color="#27FB6B"/>
<stop stop-color="#27FB6B"/>
<stop offset="0.0001" stop-color="#27FB6B"/>
<stop offset="1" stop-color="#329F5B"/>
</linearGradient>
</defs>
</svg>
