<svg width="488" height="494" viewBox="0 0 488 494" fill="none" xmlns="http://www.w3.org/2000/svg">
<path d="M375.477 244.691C375.477 318.121 316.589 377.642 243.953 377.642C171.317 377.642 112.428 318.121 112.428 244.691C112.428 171.262 171.317 111.741 243.953 111.741C316.589 111.741 375.477 171.262 375.477 244.691Z" stroke="#5A5A5A" stroke-width="0.633096"/>
<path d="M290.77 247.88C290.77 274.228 269.64 295.583 243.58 295.583C217.52 295.583 196.39 274.228 196.39 247.88C196.39 221.532 217.52 200.177 243.58 200.177C269.64 200.177 290.77 221.532 290.77 247.88Z" stroke="#5A5A5A" stroke-width="0.47703"/>
<path d="M487.589 246.591C487.589 382.608 378.506 492.865 243.953 492.865C109.399 492.865 0.316548 382.608 0.316548 246.591C0.316548 110.574 109.399 0.316548 243.953 0.316548C378.506 0.316548 487.589 110.574 487.589 246.591Z" stroke="#5A5A5A" stroke-width="0.633096"/>
</svg>
