<svg width="46" height="32" viewBox="0 0 46 32" fill="none" xmlns="http://www.w3.org/2000/svg">
<path d="M22.5341 0.909088L21.2614 9.0909C20.8674 11.5758 19.9735 14.2273 18.5795 17.0455C17.2159 19.8333 15.4583 22.5455 13.3068 25.1818C11.1553 27.7879 8.71591 30.0606 5.98864 32L0.897727 27.2727C3.26136 24.5455 5.36742 21.7121 7.21591 18.7727C9.0947 15.803 10.322 12.6364 10.8977 9.27273L12.3523 0.909088H22.5341ZM45.8068 0.909088L44.5341 9.0909C44.1402 11.5758 43.2462 14.2273 41.8523 17.0455C40.4886 19.8333 38.7311 22.5455 36.5795 25.1818C34.428 27.7879 31.9886 30.0606 29.2614 32L24.1705 27.2727C26.5341 24.5455 28.6402 21.7121 30.4886 18.7727C32.3674 15.803 33.5947 12.6364 34.1705 9.27273L35.625 0.909088H45.8068Z" fill="#ABABAB"/>
</svg>
