<svg width="1920" height="72" viewBox="0 0 1920 72" fill="none" xmlns="http://www.w3.org/2000/svg">
<path fill-rule="evenodd" clip-rule="evenodd" d="M-66 72L5.78378 57.6C59.6216 39.6 203.189 7.2 328.811 3.6C472.378 0 598 25.2 723.622 25.2C867.189 25.2 992.811 0 1136.38 3.6C1262 3.6 1387.62 32.4 1531.19 36C1656.81 39.6 1800.38 21.6 1854.22 10.8L1926 0V72H1854.22C1800.38 72 1656.81 72 1531.19 72C1387.62 72 1262 72 1136.38 72C992.811 72 867.189 72 723.622 72C598 72 472.378 72 328.811 72C203.189 72 59.6216 72 5.78378 72H-66Z" fill="#171717"/>
</svg>
