<svg width="1920" height="184" viewBox="0 0 1920 184" fill="none" xmlns="http://www.w3.org/2000/svg">
<path fill-rule="evenodd" clip-rule="evenodd" d="M-66 184L5.78378 147.2C59.6216 101.2 203.189 18.4 328.811 9.2C472.378 0 598 64.4 723.622 64.4C867.189 64.4 992.811 0 1136.38 9.2C1262 9.2 1387.62 82.8 1531.19 92C1656.81 101.2 1800.38 55.2 1854.22 27.6L1926 0V184H1854.22C1800.38 184 1656.81 184 1531.19 184C1387.62 184 1262 184 1136.38 184C992.811 184 867.189 184 723.622 184C598 184 472.378 184 328.811 184C203.189 184 59.6216 184 5.78378 184H-66Z" fill="#27FB6B"/>
</svg>
