<svg width="1920" height="201" viewBox="0 0 1920 201" fill="none" xmlns="http://www.w3.org/2000/svg">
<path fill-rule="evenodd" clip-rule="evenodd" d="M-66 201L5.78378 160.8C59.6216 110.55 203.189 20.1 328.811 10.05C472.378 0 598 70.35 723.622 70.35C867.189 70.35 992.811 0 1136.38 10.05C1262 10.05 1387.62 90.45 1531.19 100.5C1656.81 110.55 1800.38 60.3 1854.22 30.15L1926 0V201H1854.22C1800.38 201 1656.81 201 1531.19 201C1387.62 201 1262 201 1136.38 201C992.811 201 867.189 201 723.622 201C598 201 472.378 201 328.811 201C203.189 201 59.6216 201 5.78378 201H-66Z" fill="#329F5B"/>
</svg>
