<?xml version="1.0" standalone="no"?>
<!DOCTYPE svg PUBLIC "-//W3C//DTD SVG 20010904//EN"
 "http://www.w3.org/TR/2001/REC-SVG-20010904/DTD/svg10.dtd">
<svg version="1.0" xmlns="http://www.w3.org/2000/svg"
 width="625.000000pt" height="625.000000pt" viewBox="0 0 625.000000 625.000000"
 preserveAspectRatio="xMidYMid meet">
<metadata>
Created by potrace 1.14, written by Peter Selinger 2001-2017
</metadata>
<g transform="translate(0.000000,625.000000) scale(0.100000,-0.100000)"
fill="#000000" stroke="none">
<path d="M0 3125 l0 -3125 3125 0 3125 0 0 3125 0 3125 -3125 0 -3125 0 0
-3125z m3630 1851 c361 -59 588 -157 773 -335 117 -112 191 -242 227 -395 61
-265 15 -531 -130 -747 -57 -84 -170 -193 -258 -249 -39 -25 -72 -48 -72 -51
0 -3 19 -12 43 -19 23 -7 74 -28 112 -47 253 -128 416 -323 487 -585 20 -73
23 -106 23 -273 0 -167 -3 -199 -23 -268 -49 -171 -119 -286 -250 -408 -204
-192 -511 -301 -947 -339 -72 -6 -534 -10 -1162 -10 l-1043 0 0 1550 0 1550
430 0 430 0 0 326 0 326 628 -5 c530 -3 643 -6 732 -21z"/>
<path d="M2270 3905 l0 -447 518 5 c474 4 525 6 607 24 175 39 298 124 353
240 25 53 27 68 27 178 0 116 -1 123 -33 187 -57 117 -168 191 -345 230 -84
19 -135 21 -609 25 l-518 5 0 -447z"/>
<path d="M2270 2364 l0 -466 598 5 c555 4 603 6 687 24 174 40 270 90 336 176
58 77 74 135 74 268 0 113 -1 116 -38 191 -44 91 -92 136 -192 184 -161 77
-237 84 -912 84 l-553 0 0 -466z"/>
</g>
</svg>
