<svg width="87" height="87" viewBox="0 0 87 87" fill="none" xmlns="http://www.w3.org/2000/svg">
<g clip-path="url(#clip0_30_5)">
<path d="M43.5 29L32.625 35.3438V48.0312L43.5 54.375L54.375 48.0312V35.3438L43.5 29ZM48.9991 36.395L43.4529 39.6285L37.9538 36.4204L43.5 33.1869L48.9991 36.395ZM36.2137 39.5923L41.5933 42.7315V49.0752L36.2137 45.9396V39.5923ZM45.182 49.2094V42.804L50.7863 39.5343V45.9396L45.182 49.2094ZM10.875 0L0 6.34375V19.0312L10.875 25.375L21.75 19.0312V6.34375L10.875 0ZM16.3741 7.395L10.8279 10.6285L5.32875 7.42037L10.875 4.18687L16.3741 7.395ZM3.58875 10.5886L8.96825 13.7279V20.0716L3.58875 16.9432V10.5886ZM12.557 20.2057V13.804L18.1613 10.5342V16.9396L12.557 20.2057ZM10.875 61.625L0 67.9688V80.6562L10.875 87L21.75 80.6562V67.9688L10.875 61.625ZM16.3741 69.02L10.8279 72.2535L5.32875 69.0454L10.875 65.8119L16.3741 69.02ZM3.58875 72.2173L8.96825 75.3565V81.7002L3.58875 78.5683V72.2173ZM12.557 81.8344V75.429L18.1613 72.1592V78.5646L12.557 81.8344ZM76.125 0L65.25 6.34375V19.0312L76.125 25.375L87 19.0312V6.34375L76.125 0ZM81.6241 7.395L76.0779 10.6285L70.5788 7.42037L76.125 4.18687L81.6241 7.395ZM68.8388 10.5922L74.2183 13.7315V20.0753L68.8388 16.9396V10.5922ZM77.807 20.2094V13.804L83.4112 10.5342V16.9396L77.807 20.2094ZM76.125 61.625L65.25 67.9688V80.6562L76.125 87L87 80.6562V67.9688L76.125 61.625ZM81.6241 69.02L76.0779 72.2535L70.5788 69.0454L76.125 65.8119L81.6241 69.02ZM68.8388 72.2173L74.2183 75.3565V81.7002L68.8388 78.5646V72.2173ZM77.807 81.8344V75.429L83.4112 72.1592V78.5646L77.807 81.8344ZM32.625 10.875H54.375V14.5H32.625V10.875ZM32.625 72.5H54.375V76.125H32.625V72.5ZM12.6875 32.625V54.375H9.0625V32.625H12.6875ZM26.4371 32.0015L18.7485 24.3129L21.3114 21.75L29 29.435L26.4371 32.0015ZM58 30.0621L65.6886 22.3735L68.2515 24.9364L60.5629 32.625L58 30.0621ZM29.464 53.9364L21.7754 61.625L19.2125 59.0621L26.9011 51.3735L29.464 53.9364ZM61.1864 51.2176L68.875 58.9062L66.3121 61.4691L58.6235 53.7805L61.1864 51.2176ZM77.9375 32.625V54.375H74.3125V32.625H77.9375Z" fill="white"/>
</g>
<defs>
<clipPath id="clip0_30_5">
<rect width="87" height="87" fill="white"/>
</clipPath>
</defs>
</svg>
