<svg width="87" height="87" viewBox="0 0 87 87" fill="none" xmlns="http://www.w3.org/2000/svg">
<path d="M74.9469 37.7L73.7688 34.9812L71.05 33.8031C70.5667 33.5615 70.325 33.1688 70.325 32.625C70.325 32.0812 70.5667 31.6885 71.05 31.4469L73.7688 30.2688L74.9469 27.55C75.1885 27.0667 75.5812 26.825 76.125 26.825C76.6688 26.825 77.0615 27.0667 77.3031 27.55L78.4812 30.2688L81.2 31.4469C81.6833 31.6885 81.925 32.0812 81.925 32.625C81.925 33.1688 81.6833 33.5615 81.2 33.8031L78.4812 34.9812L77.3031 37.7C77.0615 38.1833 76.6688 38.425 76.125 38.425C75.5812 38.425 75.1885 38.1833 74.9469 37.7ZM56.3688 54.375L53.4688 48.0312L47.125 45.1312C46.4 44.8292 46.0375 44.2854 46.0375 43.5C46.0375 42.7146 46.4 42.1708 47.125 41.8688L53.4688 38.9688L56.3688 32.625C56.6708 31.9 57.2146 31.5375 58 31.5375C58.7854 31.5375 59.3292 31.9 59.6313 32.625L62.5312 38.9688L68.875 41.8688C69.6 42.1708 69.9625 42.7146 69.9625 43.5C69.9625 44.2854 69.6 44.8292 68.875 45.1312L62.5312 48.0312L59.6313 54.375C59.3292 55.1 58.7854 55.4625 58 55.4625C57.2146 55.4625 56.6708 55.1 56.3688 54.375ZM74.9469 59.45L73.7688 56.7312L71.05 55.5531C70.5667 55.3115 70.325 54.9188 70.325 54.375C70.325 53.8312 70.5667 53.4385 71.05 53.1969L73.7688 52.0188L74.9469 49.3C75.1885 48.8167 75.5812 48.575 76.125 48.575C76.6688 48.575 77.0615 48.8167 77.3031 49.3L78.4812 52.0188L81.2 53.1969C81.6833 53.4385 81.925 53.8312 81.925 54.375C81.925 54.9188 81.6833 55.3115 81.2 55.5531L78.4812 56.7312L77.3031 59.45C77.0615 59.9333 76.6688 60.175 76.125 60.175C75.5812 60.175 75.1885 59.9333 74.9469 59.45ZM61.625 72.5H25.375V76.125H61.625V72.5ZM61.625 14.5V10.875H25.375V14.5H61.625ZM25.375 83.375C23.3812 83.375 21.6751 82.6657 20.2565 81.2471C18.8355 79.8261 18.125 78.1188 18.125 76.125V10.875C18.125 8.88125 18.8355 7.17388 20.2565 5.75288C21.6751 4.33429 23.3812 3.625 25.375 3.625H61.625C63.6188 3.625 65.3261 4.33429 66.7471 5.75288C68.1657 7.17388 68.875 8.88125 68.875 10.875V25.375H61.625V21.75H25.375V65.25H61.625V61.625H68.875V76.125C68.875 78.1188 68.1657 79.8261 66.7471 81.2471C65.3261 82.6657 63.6188 83.375 61.625 83.375H25.375ZM25.375 10.875V14.5V10.875ZM25.375 76.125V72.5V76.125Z" fill="white"/>
</svg>
