<svg width="400" height="260" viewBox="0 0 400 260" fill="none" xmlns="http://www.w3.org/2000/svg">
<rect width="400" height="260" rx="4" fill="#181818"/>
<path d="M81 57C81 48.1634 88.1634 41 97 41H293C301.837 41 309 48.1634 309 57V260H81V57Z" fill="#393939"/>
<path d="M81 57C81 48.1634 88.1634 41 97 41H293C301.837 41 309 48.1634 309 57V260H81V57Z" fill="#393939"/>
<path d="M81 57C81 48.1634 88.1634 41 97 41H293C301.837 41 309 48.1634 309 57V60H81V57Z" fill="#7C7C7C"/>
<circle cx="96" cy="50" r="4" fill="#FC5050"/>
<circle cx="108" cy="50" r="4" fill="#F0B26A"/>
<circle cx="120" cy="50" r="4" fill="#08D241"/>
<rect x="92" y="72" width="37" height="12" rx="4" fill="#A0A0A0"/>
<rect x="94" y="123" width="87" height="13" rx="4" fill="#646464"/>
<rect x="94" y="145" width="58" height="13" rx="4" fill="#646464"/>
<rect x="94" y="223" width="43" height="9" rx="4" fill="#646464"/>
<rect x="145" y="223" width="29" height="9" rx="4" fill="#646464"/>
<rect x="209" y="74" width="20" height="6.48649" rx="3.24324" fill="#A0A0A0"/>
<rect x="240" y="74" width="20" height="6.48649" rx="3.24324" fill="#A0A0A0"/>
<rect x="100" y="176" width="20" height="6.48649" rx="3.24324" fill="#C7C7C7"/>
<rect x="225" y="118" width="66" height="53" rx="4" fill="#C7C7C7"/>
<rect x="271" y="74" width="20" height="6.48649" rx="3.24324" fill="#A0A0A0"/>
</svg>
