<svg width="24" height="24" viewBox="0 0 24 24" fill="none" xmlns="http://www.w3.org/2000/svg">
    <path
        d="M6.72001 9.11437L3.25688 12L6.72001 14.8856C6.83486 14.9797 6.92994 15.0957 6.99977 15.2267C7.0696 15.3578 7.11279 15.5014 7.12686 15.6492C7.14092 15.797 7.12558 15.9462 7.08173 16.088C7.03787 16.2299 6.96636 16.3617 6.87132 16.4758C6.77628 16.5899 6.65959 16.684 6.52799 16.7528C6.39638 16.8216 6.25246 16.8636 6.10453 16.8765C5.95659 16.8894 5.80757 16.8729 5.66606 16.8279C5.52455 16.7829 5.39334 16.7103 5.28001 16.6144L0.780005 12.8644C0.653265 12.7588 0.551294 12.6266 0.481315 12.4773C0.411336 12.3279 0.375061 12.165 0.375061 12C0.375061 11.835 0.411336 11.6721 0.481315 11.5227C0.551294 11.3734 0.653265 11.2412 0.780005 11.1356L5.28001 7.38562C5.50957 7.19749 5.80419 7.1077 6.09966 7.13581C6.39514 7.16393 6.66753 7.30767 6.8575 7.53573C7.04746 7.76379 7.13961 8.05768 7.11385 8.35337C7.0881 8.64906 6.94654 8.92259 6.72001 9.11437ZM23.22 11.1356L18.72 7.38562C18.6067 7.28968 18.4755 7.21711 18.334 7.17212C18.1924 7.12713 18.0434 7.1106 17.8955 7.12349C17.7475 7.13637 17.6036 7.17841 17.472 7.24719C17.3404 7.31597 17.2237 7.41012 17.1287 7.52422C17.0337 7.63832 16.9621 7.7701 16.9183 7.91197C16.8744 8.05384 16.8591 8.20299 16.8732 8.35081C16.8872 8.49864 16.9304 8.64222 17.0002 8.77327C17.0701 8.90432 17.1652 9.02025 17.28 9.11437L20.7431 12L17.28 14.8856C17.1652 14.9797 17.0701 15.0957 17.0002 15.2267C16.9304 15.3578 16.8872 15.5014 16.8732 15.6492C16.8591 15.797 16.8744 15.9462 16.9183 16.088C16.9621 16.2299 17.0337 16.3617 17.1287 16.4758C17.2237 16.5899 17.3404 16.684 17.472 16.7528C17.6036 16.8216 17.7475 16.8636 17.8955 16.8765C18.0434 16.8894 18.1924 16.8729 18.334 16.8279C18.4755 16.7829 18.6067 16.7103 18.72 16.6144L23.22 12.8644C23.3467 12.7588 23.4487 12.6266 23.5187 12.4773C23.5887 12.3279 23.625 12.165 23.625 12C23.625 11.835 23.5887 11.6721 23.5187 11.5227C23.4487 11.3734 23.3467 11.2412 23.22 11.1356ZM15.3844 2.6925C15.2455 2.642 15.0981 2.61935 14.9504 2.62584C14.8028 2.63234 14.6579 2.66786 14.524 2.73037C14.3901 2.79288 14.2698 2.88115 14.1701 2.99015C14.0703 3.09915 13.993 3.22674 13.9425 3.36562L7.94251 19.8656C7.8408 20.146 7.85457 20.4552 7.98079 20.7254C8.10702 20.9956 8.33536 21.2047 8.61563 21.3066C8.73868 21.352 8.86884 21.3752 9.00001 21.375C9.23098 21.375 9.45638 21.304 9.64557 21.1715C9.83477 21.039 9.97859 20.8515 10.0575 20.6344L16.0575 4.13437C16.108 3.9955 16.1307 3.84804 16.1242 3.70042C16.1177 3.55279 16.0821 3.40789 16.0196 3.27399C15.9571 3.1401 15.8689 3.01983 15.7599 2.92005C15.6509 2.82028 15.5233 2.74295 15.3844 2.6925Z"
        fill="url(#paint0_linear_504_406)" />
    <defs>
        <linearGradient id="paint0_linear_504_406" x1="0" y1="21.0001" x2="42" y2="21.0001"
            gradientUnits="userSpaceOnUse">
            <stop stop-color="#27FB6B" />
            <stop stop-color="#27FB6B" />
            <stop offset="0.0001" stop-color="#27FB6B" />
            <stop offset="1" stop-color="#329F5B" />
        </linearGradient>
    </defs>
</svg>