<svg width="42" height="42" viewBox="0 0 42 42" fill="none" xmlns="http://www.w3.org/2000/svg">
    <path
        d="M21 1.31259C15.6056 1.14273 10.3644 3.12058 6.42702 6.81183C2.48968 10.5031 0.178155 15.606 0 21.0001C0.178155 26.3942 2.48968 31.4971 6.42702 35.1884C10.3644 38.8796 15.6056 40.8574 21 40.6876C26.3944 40.8574 31.6356 38.8796 35.573 35.1884C39.5103 31.4971 41.8218 26.3942 42 21.0001C41.8218 15.606 39.5103 10.5031 35.573 6.81183C31.6356 3.12058 26.3944 1.14273 21 1.31259ZM38.6138 19.1626L35.385 18.3751C34.7287 18.1913 34.6763 18.1388 34.6237 18.0601C34.23 17.5351 33.7837 16.8263 33.3638 16.1438C33.3638 15.9076 33.0225 15.5401 32.9438 15.3301C32.865 15.1201 33.8625 13.7551 34.2825 13.1251C34.7352 12.6544 35.2576 12.256 35.8312 11.9438C37.3576 14.0743 38.3152 16.5589 38.6138 19.1626ZM21 4.59384L20.7638 5.04009C20.7403 4.95416 20.7403 4.86352 20.7638 4.77759C20.7638 4.93509 20.37 5.17134 20.1075 5.43384L19.32 6.19509C18.9608 6.56952 18.7434 7.0574 18.7051 7.57482C18.6667 8.09224 18.8099 8.60683 19.11 9.03009H18.795C18.3805 9.04207 17.974 9.14743 17.6059 9.33832C17.2377 9.52921 16.9174 9.80071 16.6687 10.1326C16.3785 10.5326 16.1809 10.9921 16.0901 11.4779C15.9993 11.9636 16.0176 12.4635 16.1438 12.9413V13.1251C15.7609 13.1933 15.3836 13.2899 15.015 13.4138L14.385 13.6238L12.705 14.1751C12.2044 14.3217 11.7481 14.5904 11.377 14.9569C11.0059 15.3234 10.7316 15.7764 10.5788 16.2751C10.4567 16.6936 10.4407 17.1359 10.5324 17.5621C10.624 17.9883 10.8204 18.385 11.1038 18.7163C12.1551 19.8527 13.3773 20.818 14.7263 21.5776C16.0466 22.4573 17.5424 23.0395 19.11 23.2838H23.52C24.051 23.2585 24.5799 23.3679 25.0572 23.602C25.5346 23.8361 25.9449 24.1872 26.25 24.6226C26.3928 24.7699 26.4982 24.9492 26.5576 25.1456C26.617 25.3419 26.6285 25.5496 26.5912 25.7513C26.539 26.0857 26.4036 26.4016 26.1975 26.6701C24.8913 27.7385 24.0074 29.2364 23.7037 30.8963C23.3637 32.1302 22.9428 33.3403 22.4438 34.5188C22.1287 35.3326 21.84 36.1201 21.63 36.7501C20.7494 36.8135 19.8643 36.7426 19.005 36.5401C19.2142 34.5897 18.7511 32.6264 17.6925 30.9751C16.8097 29.932 16.3178 28.614 16.3013 27.2476C16.4709 25.9514 16.1766 24.6369 15.4704 23.5368C14.7642 22.4367 13.6917 21.6218 12.4425 21.2363C9.5037 19.4098 6.92376 17.0612 4.83 14.3063C6.34697 11.337 8.66646 8.85266 11.5249 7.13575C14.3833 5.41884 17.666 4.53817 21 4.59384ZM3.28125 21.0001C3.28075 19.9769 3.38631 18.9565 3.59625 17.9551C5.75114 20.5343 8.36844 22.6887 11.3138 24.3076C12.8888 24.8851 13.125 25.4888 13.125 27.2476C13.1308 29.4417 13.933 31.5591 15.3825 33.2063C15.7696 34.345 15.8952 35.5562 15.75 36.7501C12.2418 35.8377 9.12657 33.8065 6.87656 30.9644C4.62654 28.1222 3.36434 24.6241 3.28125 21.0001ZM25.1213 36.9601C25.1213 36.5663 25.4363 36.1201 25.5938 35.7001C26.1905 34.3425 26.6734 32.9377 27.0375 31.5001C27.2431 30.6098 27.7424 29.8146 28.455 29.2426C29.3736 28.3395 29.9094 27.1176 29.9513 25.8301C29.9834 25.2197 29.8906 24.6091 29.6784 24.0359C29.4663 23.4626 29.1393 22.9387 28.7175 22.4963C28.0861 21.7217 27.2829 21.1049 26.3716 20.6948C25.4603 20.2847 24.466 20.0927 23.4675 20.1338H19.2937C17.3333 19.6028 15.5315 18.6028 14.0437 17.2201L15.2775 16.8001L15.9862 16.5901C16.2984 16.4472 16.6412 16.3841 16.9837 16.4063L17.22 16.8001C17.4165 17.1685 17.743 17.4506 18.1361 17.5913C18.5292 17.732 18.9606 17.7213 19.3463 17.5613C19.728 17.3832 20.0304 17.0702 20.1952 16.6825C20.3599 16.2948 20.3755 15.8598 20.2388 15.4613V14.9888C19.95 14.2013 19.6087 13.0988 19.3988 12.3638C20.0796 12.3924 20.7553 12.2338 21.3523 11.9052C21.9493 11.5766 22.4449 11.0906 22.785 10.5001C22.948 10.0602 22.9901 9.58476 22.907 9.12311C22.8239 8.66146 22.6186 8.23051 22.3125 7.87509C22.6214 7.59786 22.9109 7.29965 23.1787 6.98259C23.4197 6.69428 23.5959 6.3576 23.6956 5.99531C23.7952 5.63302 23.8159 5.25357 23.7563 4.88259C27.4253 5.42271 30.8417 7.07135 33.5475 9.60759C32.7531 10.0927 32.051 10.7148 31.4737 11.4451C30.8484 12.3589 30.2871 13.315 29.7938 14.3063C29.582 14.9182 29.5287 15.5738 29.6389 16.2118C29.749 16.8499 30.0191 17.4496 30.4237 17.9551C30.8962 18.7688 31.4212 19.5563 31.8937 20.2126C32.545 21.0335 33.4828 21.5774 34.5187 21.7351C35.0962 21.8926 37.1437 22.3126 38.5875 22.6013C38.1233 26.1012 36.5751 29.3678 34.16 31.943C31.7449 34.5182 28.5841 36.2726 25.1213 36.9601Z"
        fill="#E1E1E1" />

</svg>