<svg width="24" height="24" viewBox="0 0 24 24" fill="none" xmlns="http://www.w3.org/2000/svg">
    <path
        d="M16.2 7.20012C15.7226 7.20012 15.2648 7.01048 14.9272 6.67291C14.5897 6.33535 14.4 5.87751 14.4 5.40012C14.4 4.92273 14.5897 4.46489 14.9272 4.12733C15.2648 3.78976 15.7226 3.60012 16.2 3.60012C16.6774 3.60012 17.1352 3.78976 17.4728 4.12733C17.8104 4.46489 18 4.92273 18 5.40012C18 5.87751 17.8104 6.33535 17.4728 6.67291C17.1352 7.01048 16.6774 7.20012 16.2 7.20012ZM17.7912 7.94412C18.2338 7.66722 18.5965 7.27961 18.8433 6.81961C19.0902 6.35961 19.2128 5.84315 19.199 5.32126C19.1851 4.79938 19.0353 4.29014 18.7643 3.84389C18.4934 3.39764 18.1107 3.02982 17.654 2.77679C17.1974 2.52376 16.6826 2.39428 16.1606 2.40114C15.6386 2.408 15.1274 2.55097 14.6775 2.81592C14.2277 3.08087 13.8548 3.45862 13.5956 3.91184C13.3365 4.36506 13.2001 4.87805 13.2 5.40012H9.60001C8.80436 5.40012 8.0413 5.71619 7.47869 6.2788C6.91608 6.84141 6.60001 7.60447 6.60001 8.40012V10.5001C6.60001 11.3257 7.07641 12.0397 7.76881 12.3829L6.95161 13.2001H3.30001C3.02424 13.2001 2.75116 13.2544 2.49638 13.36C2.24159 13.4655 2.01009 13.6202 1.81509 13.8152C1.62009 14.0102 1.4654 14.2417 1.35987 14.4965C1.25433 14.7513 1.20001 15.0243 1.20001 15.3001C1.20001 15.5759 1.25433 15.849 1.35987 16.1038C1.4654 16.3585 1.62009 16.59 1.81509 16.785C2.01009 16.98 2.24159 17.1347 2.49638 17.2403C2.75116 17.3458 3.02424 17.4001 3.30001 17.4001H6.82321C7.58761 17.4001 8.33041 17.1517 8.94121 16.6945L10.1436 15.7921L12 17.6485V19.5001C12 20.0571 12.2213 20.5912 12.6151 20.985C13.0089 21.3789 13.5431 21.6001 14.1 21.6001C14.657 21.6001 15.1911 21.3789 15.5849 20.985C15.9788 20.5912 16.2 20.0571 16.2 19.5001V15.6001C16.2002 15.5213 16.1848 15.4432 16.1547 15.3703C16.1246 15.2974 16.0805 15.2311 16.0248 15.1753L14.0484 13.2001L15 12.2485L15.1164 12.3649C15.6516 12.9001 16.3764 13.2001 17.1324 13.2001H20.7C21.257 13.2001 21.7911 12.9789 22.1849 12.585C22.5788 12.1912 22.8 11.6571 22.8 11.1001C22.8 10.5432 22.5788 10.009 22.1849 9.6152C21.7911 9.22137 21.257 9.00012 20.7 9.00012H18.8484L17.7912 7.94412ZM16.5336 8.38212L18.1752 10.0249C18.231 10.0806 18.2973 10.1247 18.3702 10.1548C18.4431 10.1849 18.5212 10.2003 18.6 10.2001H20.7C20.9387 10.2001 21.1676 10.2949 21.3364 10.4637C21.5052 10.6325 21.6 10.8614 21.6 11.1001C21.6 11.3388 21.5052 11.5677 21.3364 11.7365C21.1676 11.9053 20.9387 12.0001 20.7 12.0001H17.1324C16.6944 12.0001 16.2744 11.8261 15.9648 11.5165L15.4248 10.9765C15.3691 10.9206 15.3029 10.8763 15.23 10.8461C15.1571 10.8158 15.0789 10.8002 15 10.8002C14.9211 10.8002 14.8429 10.8158 14.7701 10.8461C14.6972 10.8763 14.6309 10.9206 14.5752 10.9765L12.7752 12.7765C12.6627 12.889 12.5995 13.0416 12.5995 13.2007C12.5995 13.3598 12.6627 13.5124 12.7752 13.6249L15 15.8485V19.5001C15 19.7388 14.9052 19.9677 14.7364 20.1365C14.5676 20.3053 14.3387 20.4001 14.1 20.4001C13.8613 20.4001 13.6324 20.3053 13.4636 20.1365C13.2948 19.9677 13.2 19.7388 13.2 19.5001V17.4001C13.2002 17.3213 13.1848 17.2432 13.1547 17.1703C13.1246 17.0974 13.0805 17.0311 13.0248 16.9753L10.6248 14.5753C10.5226 14.4731 10.3869 14.4113 10.2427 14.4011C10.0985 14.391 9.95553 14.4332 9.84001 14.5201L8.22121 15.7345C7.81783 16.0368 7.3273 16.2002 6.82321 16.2001H3.30001C3.06132 16.2001 2.8324 16.1053 2.66362 15.9365C2.49483 15.7677 2.40001 15.5388 2.40001 15.3001C2.40001 15.0614 2.49483 14.8325 2.66362 14.6637C2.8324 14.4949 3.06132 14.4001 3.30001 14.4001H7.20001C7.27886 14.4003 7.35696 14.3849 7.42985 14.3548C7.50274 14.3247 7.56899 14.2806 7.62481 14.2249L9.35161 12.4969C9.77282 12.3594 10.1397 12.0923 10.3999 11.7336C10.6601 11.3749 10.8001 10.9432 10.8 10.5001V9.60012H12C12.1591 9.60012 12.3118 9.53691 12.4243 9.42439C12.5368 9.31186 12.6 9.15925 12.6 9.00012C12.6 8.84099 12.5368 8.68838 12.4243 8.57586C12.3118 8.46334 12.1591 8.40012 12 8.40012H10.2C10.0409 8.40012 9.88827 8.46334 9.77575 8.57586C9.66323 8.68838 9.60001 8.84099 9.60001 9.00012V10.5001C9.60001 10.7388 9.50519 10.9677 9.33641 11.1365C9.16763 11.3053 8.93871 11.4001 8.70001 11.4001C8.46132 11.4001 8.2324 11.3053 8.06362 11.1365C7.89483 10.9677 7.80001 10.7388 7.80001 10.5001V8.40012C7.80001 7.92273 7.98965 7.46489 8.32722 7.12733C8.66479 6.78976 9.12262 6.60012 9.60001 6.60012H13.4496C13.7059 7.18765 14.1435 7.67765 14.6985 7.99834C15.2535 8.31902 15.8966 8.45352 16.5336 8.38212Z"
        fill="#E1E1E1" />
</svg>