<svg width="24" height="24" viewBox="0 0 24 24" fill="none" xmlns="http://www.w3.org/2000/svg">
<path d="M7.1 11.35C7.33334 10.8833 7.575 10.4333 7.825 9.99996C8.075 9.56663 8.35 9.13329 8.65 8.69996L7.25 8.42496L5.15 10.525L7.1 11.35ZM19.15 4.47496C17.9833 4.50829 16.7377 4.84996 15.413 5.49996C14.0883 6.14996 12.884 7.01663 11.8 8.09996C11.1 8.79996 10.475 9.54996 9.925 10.35C9.375 11.15 8.96667 11.9 8.7 12.6L11.55 15.425C12.25 15.1583 13 14.75 13.8 14.2C14.6 13.65 15.35 13.025 16.05 12.325C17.1333 11.2416 18 10.0416 18.65 8.72496C19.3 7.40829 19.6417 6.16663 19.675 4.99996C19.675 4.93329 19.6623 4.86663 19.637 4.79996C19.6117 4.73329 19.5743 4.67496 19.525 4.62496C19.475 4.57496 19.4167 4.53763 19.35 4.51296C19.2833 4.48829 19.2167 4.47563 19.15 4.47496ZM13.65 10.475C13.2667 10.0916 13.075 9.62096 13.075 9.06296C13.075 8.50496 13.2667 8.03396 13.65 7.64996C14.0333 7.26663 14.5083 7.07496 15.075 7.07496C15.6417 7.07496 16.1167 7.26663 16.5 7.64996C16.8833 8.03329 17.075 8.50429 17.075 9.06296C17.075 9.62162 16.8833 10.0923 16.5 10.475C16.1167 10.8583 15.6417 11.05 15.075 11.05C14.5083 11.05 14.0333 10.8583 13.65 10.475ZM12.8 17.025L13.625 19L15.725 16.9L15.45 15.5C15.0167 15.8 14.5833 16.071 14.15 16.313C13.7167 16.555 13.2667 16.7923 12.8 17.025ZM21.575 3.67496C21.7083 5.50829 21.4083 7.29596 20.675 9.03796C19.9417 10.78 18.7833 12.4423 17.2 14.025L17.7 16.5C17.7667 16.8333 17.75 17.1583 17.65 17.475C17.55 17.7916 17.3833 18.0666 17.15 18.3L14 21.45C13.75 21.7 13.45 21.796 13.1 21.738C12.75 21.68 12.5083 21.484 12.375 21.15L10.85 17.575L6.575 13.3L3 11.775C2.66667 11.6416 2.46667 11.4 2.4 11.05C2.33334 10.7 2.425 10.4 2.675 10.15L5.825 6.99996C6.05834 6.76663 6.33734 6.59996 6.662 6.49996C6.98667 6.39996 7.316 6.38329 7.65 6.44996L10.125 6.94996C11.7083 5.36662 13.371 4.20829 15.113 3.47496C16.855 2.74163 18.6423 2.44163 20.475 2.57496C20.6083 2.59163 20.7417 2.62929 20.875 2.68796C21.0083 2.74663 21.125 2.82563 21.225 2.92496C21.325 3.02496 21.4043 3.14163 21.463 3.27496C21.5217 3.40829 21.559 3.54163 21.575 3.67496ZM3.925 15.975C4.50834 15.3916 5.221 15.096 6.063 15.088C6.905 15.08 7.61734 15.3673 8.2 15.95C8.78334 16.5333 9.071 17.246 9.063 18.088C9.055 18.93 8.759 19.6423 8.175 20.225C7.75834 20.6416 7.06267 21 6.088 21.3C5.11334 21.6 3.76734 21.8666 2.05 22.1C2.28334 20.3833 2.55 19.0373 2.85 18.062C3.15 17.0866 3.50834 16.391 3.925 15.975ZM5.35 17.375C5.18334 17.5416 5.01667 17.846 4.85 18.288C4.68334 18.73 4.56667 19.1756 4.5 19.625C4.95 19.5583 5.396 19.4456 5.838 19.287C6.28 19.1283 6.584 18.966 6.75 18.8C6.95 18.6 7.05834 18.3583 7.075 18.075C7.09167 17.7916 7 17.55 6.8 17.35C6.6 17.15 6.35834 17.054 6.075 17.062C5.79167 17.07 5.55 17.1743 5.35 17.375Z" fill="#E1E1E1"/>
</svg>
